<svg width="1199" height="1260" viewBox="0 0 1199 1260" fill="none" xmlns="http://www.w3.org/2000/svg">
<path d="M427.387 688.595C428.187 690.061 429.121 691.261 429.521 691.261C429.787 691.261 429.521 690.061 428.721 688.595C427.921 687.128 426.987 685.928 426.587 685.928C426.321 685.928 426.587 687.128 427.387 688.595Z" fill="white"/>
<path d="M696.854 993.394C696.854 994.861 697.254 995.261 697.654 994.194C698.054 993.261 697.921 992.061 697.521 991.661C697.121 991.128 696.721 991.928 696.854 993.394Z" fill="white"/>
<path d="M562.854 1030.73C561.787 1033.39 562.854 1034.99 564.721 1033.13C565.387 1032.46 565.387 1031.13 564.854 1030.19C564.054 1028.73 563.521 1028.86 562.854 1030.73Z" fill="white"/>
<path d="M610.721 1033.93C611.121 1034.59 611.787 1035.26 612.187 1035.26C612.454 1035.26 612.721 1034.59 612.721 1033.93C612.721 1033.13 612.054 1032.59 611.254 1032.59C610.587 1032.59 610.321 1033.13 610.721 1033.93Z" fill="white"/>
<path d="M613.654 1039.93C614.054 1040.99 614.854 1041.53 615.521 1041.13C617.121 1040.19 616.987 1039.66 614.854 1038.86C613.521 1038.33 613.121 1038.73 613.654 1039.93Z" fill="white"/>
<path d="M616.721 1045.13C616.721 1045.39 617.654 1045.93 618.721 1046.46C619.787 1046.86 620.721 1046.59 620.721 1045.93C620.721 1045.13 619.787 1044.59 618.721 1044.59C617.654 1044.59 616.721 1044.86 616.721 1045.13Z" fill="white"/>
<path d="M624.054 1049.79C623.654 1050.46 623.921 1051.39 624.721 1051.93C625.387 1052.33 626.054 1051.79 626.054 1050.73C626.054 1048.33 625.254 1047.93 624.054 1049.79Z" fill="white"/>
<path d="M629.787 1054.86C630.721 1055.26 631.921 1055.13 632.321 1054.73C632.854 1054.33 632.054 1053.93 630.587 1054.06C629.121 1054.06 628.721 1054.46 629.787 1054.86Z" fill="white"/>
<path d="M637.387 1057.93C637.787 1058.59 638.454 1059.26 638.854 1059.26C639.121 1059.26 639.387 1058.59 639.387 1057.93C639.387 1057.13 638.721 1056.59 637.921 1056.59C637.254 1056.59 636.987 1057.13 637.387 1057.93Z" fill="white"/>
<path d="M645.387 1060.59C645.787 1061.26 646.454 1061.93 646.854 1061.93C647.121 1061.93 647.387 1061.26 647.387 1060.59C647.387 1059.79 646.721 1059.26 645.921 1059.26C645.254 1059.26 644.987 1059.79 645.387 1060.59Z" fill="white"/>
<path d="M948.054 1088.59C948.587 1089.39 949.521 1089.66 950.187 1089.26C952.054 1088.06 951.654 1087.26 949.254 1087.26C948.187 1087.26 947.654 1087.93 948.054 1088.59Z" fill="white"/>
<path fill-rule="evenodd" clip-rule="evenodd" d="M786.321 3.39435C795.387 7.92768 799.387 17.1277 798.321 30.461L797.654 38.3277L818.721 57.5276L818.987 73.3943C819.254 93.661 822.187 107.794 828.721 121.261C833.387 130.594 835.521 133.928 842.187 141.661C844.721 144.728 846.587 142.595 850.321 132.595C854.854 120.328 855.921 119.261 858.454 124.061C861.921 131.128 870.321 157.128 873.521 171.261C881.387 206.061 873.121 266.061 852.721 321.928C833.654 373.661 826.054 406.194 826.054 434.994C826.054 455.394 832.987 495.661 839.787 514.328C848.721 538.861 859.521 549.128 910.587 580.861C919.121 586.194 921.254 588.194 925.654 595.794C931.521 606.194 932.454 606.594 948.587 605.528C969.121 604.061 982.721 599.261 992.987 589.528C1005.79 577.528 1008.72 567.794 1008.72 537.928C1008.72 524.061 1007.79 511.528 1006.05 499.928C996.454 436.728 995.387 425.661 995.387 380.861C995.387 347.661 996.854 316.861 999.921 288.728C1001.52 273.661 1001.52 273.528 998.454 269.794C994.454 264.994 990.454 255.928 989.254 248.861C988.854 245.928 989.387 234.728 990.587 224.328C995.521 182.461 996.321 179.661 1007.39 168.061C1017.25 157.661 1024.05 154.728 1035.92 155.928C1041.12 156.461 1047.12 157.528 1049.39 158.461C1054.85 160.861 1063.92 171.261 1068.32 180.461C1073.92 192.194 1073.79 200.728 1067.52 231.128C1061.52 260.328 1059.12 265.528 1047.92 274.594C1041.79 279.394 1040.99 280.728 1039.65 287.261C1037.25 298.995 1036.72 310.061 1036.72 342.594C1036.59 398.461 1041.79 455.794 1051.52 507.928C1055.39 528.861 1056.45 570.061 1053.52 586.861C1050.32 605.261 1041.25 623.261 1029.79 634.061C1016.99 645.928 988.721 657.928 966.587 660.594C960.187 661.394 954.454 662.328 953.787 662.728C953.254 663.128 952.721 668.994 952.721 675.928C952.721 689.394 951.387 695.794 944.721 715.394C940.054 728.728 938.321 744.461 939.921 755.528L940.854 761.528L958.454 762.461C992.854 764.194 1023.39 771.394 1051.12 784.061C1056.59 786.594 1061.12 788.594 1061.39 788.594C1062.99 788.594 1086.45 803.128 1096.59 810.461C1108.05 818.728 1111.79 821.928 1126.05 835.394C1131.79 840.861 1150.19 862.994 1156.05 871.394C1167.25 887.528 1179.65 912.328 1185.92 930.994C1223.52 1043.26 1177.92 1165.39 1076.05 1225.26C972.454 1286.19 838.721 1265.13 760.321 1175.53C736.987 1148.73 716.987 1113.79 709.787 1086.86C708.321 1081.39 707.787 1080.59 704.587 1080.59C702.454 1080.59 700.587 1080.06 700.054 1079.39C699.654 1078.59 698.321 1078.06 696.987 1078.06C690.054 1077.93 660.187 1071.39 646.721 1066.99C632.721 1062.33 620.187 1055.66 614.721 1049.79C609.521 1044.19 603.121 1032.86 604.054 1031.26C604.987 1029.79 570.854 1038.46 569.787 1039.93C569.254 1040.59 568.721 1042.86 568.721 1044.73C568.721 1051.26 567.387 1051.39 533.787 1046.59C516.454 1044.19 501.521 1041.79 500.721 1041.26C499.521 1040.59 499.254 1037.66 499.787 1031.79C500.187 1027.13 500.054 1022.99 499.387 1022.59C496.721 1020.99 502.854 989.794 508.187 977.928C514.454 963.794 533.787 948.061 546.587 946.594C561.254 944.994 564.321 944.728 573.121 944.728C578.054 944.595 582.054 944.061 582.054 943.394C582.054 942.461 565.521 916.328 542.721 881.261C541.925 880.024 540.734 878.185 539.317 875.999C536.46 871.59 532.685 865.764 529.387 860.594C524.454 852.861 516.721 840.994 512.187 834.061C507.787 827.128 498.987 813.395 492.721 803.661C488.802 797.571 483.463 789.242 476.662 778.631C464.254 759.273 446.98 732.322 424.587 697.528L407.521 671.128L403.387 679.928C399.654 687.928 399.121 688.461 396.587 687.128C393.521 685.528 392.454 686.461 385.654 698.061L381.921 704.328L388.321 709.261C430.854 741.528 463.387 790.861 476.721 843.128C485.387 877.261 485.654 925.261 477.387 958.328C473.521 973.528 466.987 991.794 460.587 1005.53C455.121 1017.26 441.654 1039.79 435.387 1047.79C428.721 1056.19 412.454 1074.19 406.721 1079.26C403.121 1082.59 399.254 1086.06 398.321 1086.86C381.387 1102.59 346.587 1122.33 319.521 1131.26C268.054 1148.46 216.721 1148.46 164.587 1131.26C87.5206 1105.93 27.5206 1041.26 7.52057 961.794C-2.7461 921.261 -2.47943 881.394 8.18724 839.928C30.7206 752.194 104.054 682.861 193.521 664.728C246.454 653.928 304.054 661.928 352.987 686.728C356.721 688.595 359.787 689.928 359.921 689.661C361.787 686.994 368.721 674.994 368.721 674.328C368.721 673.928 367.787 672.861 366.587 671.928C364.721 670.594 367.654 663.928 392.054 615.394C414.854 570.061 420.054 560.595 421.787 561.261C427.254 563.528 428.321 563.394 429.121 560.594C429.921 557.661 429.654 557.661 421.254 558.195L421.226 558.196C412.72 558.728 412.579 558.737 404.587 566.994C396.587 575.261 396.454 575.261 388.987 575.261C384.721 575.261 373.921 574.594 364.854 573.928L348.321 572.594L343.787 577.928C335.787 587.261 333.654 584.861 334.854 567.528L334.93 566.248C335.578 555.418 335.838 551.066 337.896 547.875C339.279 545.731 341.473 544.111 345.141 541.402C345.436 541.185 345.74 540.96 346.054 540.728L355.387 533.928H379.387V522.994L350.721 524.861L345.387 530.061C342.321 532.861 339.254 535.261 338.321 535.261C337.121 535.261 336.721 530.861 336.721 519.261C336.721 501.261 336.454 500.995 327.921 506.728C319.387 512.595 314.987 519.794 312.854 532.061C310.187 546.994 315.121 563.394 326.054 575.661C332.054 582.461 346.721 591.795 359.254 596.728C363.387 598.328 366.854 599.794 367.121 600.061C368.187 600.728 364.721 610.461 362.721 612.594C360.587 614.994 360.054 614.861 349.121 609.794C333.921 602.861 321.521 594.461 312.854 585.261C292.854 564.061 289.787 527.928 306.187 504.728C309.787 499.528 310.054 498.461 308.587 495.661C306.187 491.128 298.721 491.394 293.787 496.194C290.454 499.261 290.054 500.728 290.054 507.794C290.054 514.328 289.254 517.261 286.187 522.728C282.054 529.928 277.254 533.928 272.721 533.928C268.454 533.928 269.521 530.194 275.521 524.328C282.721 517.261 283.787 513.795 282.054 505.261C280.454 497.661 280.854 496.194 286.321 486.994C288.321 483.528 291.254 476.328 292.854 470.994C296.454 458.994 298.587 454.461 301.521 453.394C304.987 452.061 307.387 455.128 307.387 460.994C307.387 469.794 312.454 476.861 321.787 480.994C333.254 486.194 333.521 486.061 334.454 476.194C335.521 464.594 340.187 450.594 344.721 445.528C346.721 443.128 351.254 439.794 354.721 438.061C360.854 434.994 361.787 434.861 387.254 435.528C402.054 435.928 414.587 436.728 416.054 437.528C417.521 438.328 422.587 442.994 427.387 447.928C439.121 459.928 439.787 460.194 445.787 456.194C450.721 452.861 472.587 440.594 473.654 440.594C474.987 440.594 496.987 427.528 507.654 420.328C514.054 416.061 529.121 405.261 541.121 396.328C553.121 387.261 567.254 376.861 572.454 373.261C577.654 369.528 582.054 365.928 582.054 365.128C582.054 364.328 580.721 362.461 579.121 360.994L576.054 358.194L562.187 367.261L548.187 376.328L542.187 372.328C533.921 366.728 526.454 360.461 501.521 338.594C489.787 328.328 475.921 316.328 470.587 311.928C448.987 294.061 432.854 279.661 428.854 274.328C424.054 268.194 423.787 268.061 401.921 266.594L390.454 265.661L379.521 256.994L368.587 248.194L357.654 249.128C347.254 250.061 346.454 250.328 341.387 255.261C338.321 258.195 335.521 260.594 334.987 260.594C333.787 260.594 333.921 244.728 335.121 236.728C335.921 231.661 336.987 230.194 343.787 224.861C350.321 219.661 352.721 218.594 357.787 218.461C359.381 218.4 361.061 218.31 362.539 218.231C364.275 218.139 365.734 218.061 366.454 218.061C368.187 217.928 368.721 216.728 368.721 213.261V208.594H347.921L342.054 214.594C338.854 217.928 335.654 220.594 334.854 220.594C334.187 220.594 333.921 214.861 334.454 206.194L335.254 191.928L342.987 184.994C350.454 178.194 350.987 177.928 358.721 177.928C368.854 177.928 370.321 176.994 369.254 171.528L368.454 167.261H348.321L342.454 173.261C339.387 176.594 336.187 179.261 335.387 179.261C333.654 179.261 333.654 165.794 335.387 156.461C336.587 150.194 337.787 148.328 344.454 141.794L352.187 134.328L368.721 133.394C387.254 132.461 418.987 134.194 423.121 136.461C428.321 139.261 432.987 151.394 433.921 165.128L434.721 177.661L454.721 191.928L456.917 193.511C473.392 205.381 479.944 210.102 502.054 226.461C506.054 229.394 512.454 233.928 516.054 236.461C519.787 238.994 522.987 241.394 523.387 241.794C526.321 245.261 543.921 254.994 556.054 259.928C565.387 263.661 573.521 263.928 583.254 261.128C586.054 260.328 586.321 260.461 585.387 262.728C580.721 274.194 578.987 284.728 578.854 303.928C578.721 325.928 579.921 333.128 586.321 347.261C590.454 356.595 592.721 356.594 592.721 347.128C592.721 340.594 598.321 318.728 603.387 305.794C603.552 305.365 603.712 304.951 603.865 304.552C606.769 297.009 607.612 294.819 606.954 294.185C606.685 293.925 606.164 293.926 605.431 293.928L605.254 293.928C603.387 293.928 601.921 296.594 594.721 313.528C593.387 316.728 591.521 319.261 590.721 319.261C588.187 319.261 587.387 314.595 587.387 299.261C587.387 284.195 590.721 266.328 595.254 255.928C598.454 248.728 602.054 247.794 602.054 254.194C602.187 264.061 609.921 285.928 613.387 285.928C616.054 285.928 618.854 281.795 623.254 271.261C625.654 265.795 628.454 260.328 629.521 259.128C631.254 257.128 630.854 255.261 628.587 255.261C628.187 255.261 624.454 258.194 620.587 261.928C616.721 265.528 613.121 268.594 612.587 268.594C610.587 268.594 608.454 252.994 608.987 242.594C609.521 234.594 610.454 230.328 613.121 225.128C616.721 218.061 622.854 209.928 624.587 209.928C625.254 209.928 626.054 214.994 626.454 221.128C626.854 227.261 628.187 234.594 629.387 237.394C631.521 242.728 634.987 247.261 636.854 247.261C638.187 247.261 657.654 223.261 662.854 215.261C664.987 211.928 666.987 208.994 667.387 208.594C669.387 206.728 672.854 200.328 672.187 199.661C670.454 197.794 664.854 202.861 643.254 226.061C640.587 228.861 637.654 231.261 636.854 231.261C633.921 231.261 631.387 223.394 631.387 213.928V204.594L627.121 204.461C621.654 204.328 612.987 203.394 609.254 202.594C604.987 201.661 602.987 195.794 602.321 182.194L601.787 169.661L611.521 170.594C623.521 171.794 623.654 171.794 639.654 171.528C651.121 171.261 652.987 170.861 656.187 168.194C659.387 165.394 659.787 164.194 659.787 156.861C659.654 144.994 656.454 139.128 648.721 136.861C640.454 134.328 620.987 135.661 610.854 139.261C598.321 143.794 596.721 142.994 592.987 131.261L592.664 130.241C591.054 125.158 590.291 122.751 589.194 120.507C588.207 118.489 586.95 116.603 584.561 113.021L584.187 112.461C579.254 105.128 574.987 82.4612 577.121 75.7945C578.587 71.7945 598.454 64.5945 608.321 64.5945C612.721 64.5945 618.054 63.5278 622.187 61.7945C627.654 59.3945 629.387 57.7943 632.187 52.461C636.454 43.9277 642.321 37.3945 648.054 34.7278C650.587 33.3945 658.321 31.7944 665.121 31.1277C678.987 29.6611 704.587 24.8612 727.121 19.7945C739.254 16.9945 743.521 15.3943 748.454 11.5276C751.921 8.99431 754.987 6.46113 755.387 5.92779C756.454 4.32779 762.454 1.52766 766.721 0.460998C772.187 -0.739002 780.321 0.461014 786.321 3.39435ZM832.987 75.6612C835.654 80.1945 840.587 89.6612 844.054 96.5945C849.654 107.795 850.321 109.794 849.654 115.528C848.721 122.861 846.721 127.261 844.187 127.261C841.787 127.261 832.321 112.595 828.854 103.661C823.521 90.0612 822.054 67.261 826.454 67.261C827.387 67.261 830.187 70.9945 832.987 75.6612ZM616.587 458.995C610.187 463.128 600.587 469.661 595.254 473.394C581.121 483.128 567.387 490.328 552.054 495.794C525.387 505.528 519.654 507.928 494.587 519.928L469.254 532.328L460.187 550.061C455.121 559.928 450.587 568.461 449.921 569.128C447.787 571.395 448.587 574.994 451.387 575.928C454.587 576.994 454.721 578.194 451.921 583.394C450.854 585.661 450.054 587.661 450.321 587.928C450.563 588.17 462.152 590.836 476.876 594.223L476.894 594.228L476.9 594.229C478.367 594.566 479.866 594.911 481.387 595.261C495.21 598.309 514.72 602.689 529.182 605.936L529.322 605.968L529.35 605.974L529.915 606.101L533.557 606.919C535.151 607.277 536.656 607.614 538.054 607.928L542.463 608.917C557.556 612.3 582.191 617.824 600.054 621.928C619.921 626.328 648.321 632.728 663.387 636.195C667.142 637.025 670.946 637.864 674.611 638.672L674.674 638.686L674.679 638.687L674.742 638.701L674.808 638.716L674.829 638.72C685.779 641.135 695.439 643.266 698.721 644.061C703.121 644.995 708.187 645.794 710.054 645.794C711.921 645.794 719.121 642.194 726.321 637.528C733.387 632.994 741.121 628.195 743.654 626.728L748.054 624.328L737.387 619.394C724.987 613.528 708.721 603.661 692.721 592.195C686.454 587.795 681.121 583.661 680.721 583.261C680.321 582.861 676.187 579.395 671.387 575.661C660.987 567.528 623.121 527.128 615.254 515.928C609.654 507.928 603.254 494.994 601.654 488.328C600.721 484.994 601.787 484.061 618.054 472.461C627.654 465.661 635.387 459.528 635.387 458.728C635.254 456.861 630.587 451.261 629.121 451.394C628.587 451.394 622.854 454.861 616.587 458.995ZM426.187 633.928L430.454 625.928C432.854 621.528 435.254 617.928 435.787 617.928C439.387 617.928 478.721 627.528 479.387 628.594C479.787 629.261 482.187 629.794 484.721 629.794C487.254 629.661 494.454 630.861 500.721 632.328C515.654 635.794 599.387 654.728 641.387 664.194C659.787 668.328 674.987 671.928 675.387 672.328C675.787 672.594 673.921 674.461 671.387 676.461C663.521 682.461 639.121 703.528 628.721 713.261C567.654 770.728 563.387 776.328 562.321 799.394C561.654 813.528 564.321 828.728 571.121 851.528C573.254 858.728 574.854 864.594 574.587 864.594C574.454 864.594 567.254 853.661 558.721 840.194C550.187 826.861 539.121 809.661 534.054 801.928C528.987 794.194 522.587 784.328 519.921 779.928C518.594 777.843 512.897 768.963 504.688 756.168L504.56 755.969L504.551 755.955L504.152 755.333C495.095 741.217 483.107 722.531 470.587 702.994L426.187 633.928ZM641.387 66.7277C637.654 70.7277 637.387 72.3276 639.387 79.5276C640.987 85.261 647.254 93.261 648.854 91.661C649.387 91.1277 650.321 88.5944 650.987 86.3277C651.787 83.1277 653.921 80.7277 658.587 77.661C666.587 72.3277 668.587 69.5277 666.587 66.1943C665.387 64.461 662.854 63.7943 654.854 63.5276C645.254 63.1276 644.454 63.3943 641.387 66.7277ZM750.987 20.5944C754.054 17.6611 758.587 14.3278 760.987 13.2611C769.521 9.39444 777.254 12.7277 783.787 23.1277C785.921 26.7277 786.587 29.9278 786.721 37.2611C786.721 45.2611 786.187 47.3944 782.854 52.7277C780.721 56.0611 777.121 60.0611 774.721 61.6611C767.921 66.3277 741.521 77.9277 740.321 76.7277C739.787 76.1944 740.854 73.1278 742.587 69.7944C745.521 64.7278 747.121 63.5277 754.321 60.7277C770.721 54.4611 775.787 49.7944 777.387 39.6611C778.987 29.7944 773.921 20.5944 766.987 20.5944C765.654 20.5944 761.121 23.9277 756.854 27.9277C748.721 35.6611 743.654 37.6611 737.787 35.3944C732.587 33.3944 733.121 31.5278 739.787 28.5944C742.854 27.2611 747.921 23.6611 750.987 20.5944ZM808.721 66.5945C808.587 77.1278 806.987 86.1945 805.121 86.8611C802.187 87.9278 798.587 83.5278 794.854 74.5945L791.521 66.5945L791.387 74.9945C791.387 83.2612 793.654 91.1278 796.987 94.3278C797.921 95.2612 800.987 97.7945 803.921 99.9279C808.854 103.661 809.121 103.795 810.987 101.261C812.587 99.1278 812.854 95.2611 812.454 82.5945C812.187 73.7945 811.254 65.3945 810.321 63.9279C808.987 61.5279 808.854 61.9278 808.721 66.5945ZM757.387 109.261C760.187 109.261 762.454 103.928 766.721 86.8613C769.921 74.1946 771.921 75.3946 770.987 89.528C770.321 101.661 764.721 122.195 761.254 125.795C759.654 127.528 759.121 127.395 756.987 125.528C751.521 120.461 746.987 108.728 746.321 97.7946C745.787 89.1279 746.054 87.2613 747.654 87.2613C749.121 87.2613 749.654 89.1279 749.921 94.1946C750.187 102.195 753.654 109.261 757.387 109.261ZM778.987 77.5279C776.321 94.1946 775.254 114.195 776.454 122.461C778.054 132.861 782.721 143.661 788.854 151.261C795.521 159.528 797.787 158.461 803.521 144.461C808.054 133.528 810.454 115.795 807.521 116.728C806.587 117.128 804.987 119.528 804.187 122.195C801.921 128.728 796.854 136.595 794.987 136.595C794.054 136.595 792.321 135.661 791.121 134.728C786.321 131.128 784.721 123.928 783.387 99.1279C782.187 75.2612 780.587 67.2612 778.987 77.5279ZM758.054 183.394C756.587 172.194 758.454 160.328 765.654 136.594C767.521 130.328 769.387 126.061 769.654 126.994C770.054 127.928 769.254 137.128 768.054 147.394C766.054 164.328 766.054 174.728 768.187 182.194C769.521 186.861 774.454 184.728 782.987 175.794C787.654 170.994 791.387 167.928 791.387 168.861C791.387 174.861 774.187 201.928 769.254 203.794C765.254 205.261 759.654 194.994 758.054 183.394ZM734.454 92.7277C733.654 93.7944 730.854 100.994 728.187 108.728C720.187 132.194 719.521 154.461 726.454 168.328C730.321 176.194 733.387 176.328 738.321 169.261C743.121 162.461 750.987 146.461 752.054 141.261C752.472 139.24 752.672 138.275 752.462 138.177C752.271 138.086 751.739 138.718 750.721 139.928C749.521 141.394 746.854 145.128 744.721 148.194C740.454 154.194 734.587 156.994 732.587 153.794C730.854 150.861 729.654 136.061 730.721 128.328C731.121 124.461 732.721 115.128 734.187 107.528C736.987 93.261 737.121 89.6611 734.454 92.7277ZM691.254 161.261C704.854 145.928 713.921 126.994 720.854 100.194C722.587 93.7944 724.321 88.5944 724.987 88.5944C728.454 88.5944 722.587 114.994 714.587 135.528C704.454 161.528 693.921 178.861 684.987 184.194C678.054 188.461 674.854 188.328 675.921 183.794C677.254 178.861 681.921 171.928 691.254 161.261ZM356.721 474.994C347.254 475.528 346.454 475.794 342.987 480.061L339.121 484.594H376.721V479.261C376.721 473.928 376.721 473.928 371.787 474.194C370.561 474.253 368.566 474.362 366.252 474.49L366.251 474.49C363.284 474.653 359.792 474.845 356.721 474.994ZM609.787 312.461C614.454 300.995 620.054 290.195 627.121 278.995C629.921 274.728 632.187 272.061 632.454 272.995C632.587 273.928 629.521 285.395 625.521 298.461C621.387 311.395 617.387 326.061 616.587 330.861C614.587 342.061 615.787 353.928 618.987 356.328C621.787 358.328 622.854 357.261 628.721 345.928C632.854 338.061 639.654 329.928 642.187 329.928C642.987 329.928 643.387 330.728 642.987 331.528L642.985 331.534L642.976 331.555C642.543 332.565 640.163 338.117 637.521 344.061C634.987 349.928 631.254 360.995 629.387 368.728C627.522 376.321 625.524 384.314 624.989 386.456L624.987 386.461C623.254 393.528 620.854 392.061 615.387 380.195C603.654 355.261 601.787 332.328 609.787 312.461ZM652.454 245.528C636.854 275.928 633.254 296.861 641.121 312.461C642.854 315.794 644.854 318.594 645.654 318.861C646.587 319.261 648.454 316.994 650.054 314.061C651.52 311.128 656.987 301.394 662.054 292.461C675.254 269.261 674.72 266.594 660.054 282.594C652.72 290.594 650.187 292.594 648.187 291.794C645.921 290.994 645.787 289.794 646.454 280.728C647.121 271.128 654.987 245.128 660.187 234.994C661.254 232.994 661.654 231.261 660.987 231.261C660.321 231.261 656.454 237.661 652.454 245.528ZM670.321 246.861C668.054 229.661 672.321 215.128 684.187 198.861C686.854 195.261 689.254 192.594 689.521 192.994C689.921 193.394 688.054 198.994 685.254 205.394C680.721 216.328 680.321 218.328 680.187 230.461C680.054 238.994 680.587 243.794 681.521 244.194C682.321 244.461 685.921 242.061 689.521 238.861C696.454 232.594 701.787 229.261 702.987 230.461C703.387 230.861 700.721 234.728 696.987 239.261C693.254 243.661 688.054 250.861 685.521 255.128C677.254 268.594 672.987 266.328 670.321 246.861ZM716.454 229.394C704.721 248.861 699.787 263.128 701.254 273.794C702.321 281.661 708.054 293.928 710.587 293.928C714.454 293.928 735.921 260.728 733.654 258.328C732.987 257.794 729.121 261.128 724.721 265.794C720.454 270.461 716.187 273.928 715.121 273.661C711.787 272.461 713.254 254.594 717.921 238.728C720.321 230.861 722.054 223.794 721.654 222.861C721.387 222.061 719.121 224.994 716.454 229.394ZM670.054 313.261C670.054 299.261 677.121 280.861 688.321 265.928C690.987 262.328 693.787 259.261 694.454 259.261C695.787 259.261 695.254 261.395 688.587 279.661C682.854 295.528 679.387 308.461 679.387 314.594C679.387 320.728 681.921 328.594 684.054 328.594C684.987 328.594 687.254 326.328 688.854 323.528C692.854 316.994 702.054 305.928 703.521 305.928C705.121 305.928 701.921 314.061 692.587 333.528C683.921 352.061 682.854 352.594 677.254 341.794C672.987 333.261 670.054 321.661 670.054 313.261ZM654.987 326.461C643.254 350.061 639.521 370.461 643.921 386.594C646.721 397.128 656.321 414.594 661.387 418.194C663.654 419.928 665.654 415.661 666.454 407.528C666.854 403.394 670.054 390.994 673.387 379.928C676.721 368.994 679.254 359.394 678.987 358.728C678.187 356.461 670.721 367.794 665.921 378.594C660.721 390.061 658.454 390.861 655.654 382.594C653.121 375.261 654.321 354.995 658.721 332.728C660.587 322.995 661.921 314.728 661.654 314.461C661.387 314.195 658.321 319.528 654.987 326.461ZM678.587 409.528C677.387 395.528 681.387 377.261 691.254 352.195C692.054 350.195 692.854 348.594 693.121 348.594C693.387 348.594 692.987 353.261 692.321 358.861C690.987 371.661 692.054 408.328 694.054 416.995C696.721 427.928 701.121 426.861 706.454 413.794C709.654 405.928 712.187 404.328 711.521 410.594C711.121 414.994 705.387 443.661 703.254 451.394C701.254 459.394 698.587 458.994 692.721 449.528C685.654 438.328 679.654 421.661 678.587 409.528ZM733.521 373.528C719.254 416.728 717.654 443.928 728.054 465.395C732.854 475.128 736.987 480.061 739.254 478.728C739.921 478.195 740.854 474.461 741.387 470.195C742.721 456.995 746.187 437.528 748.187 430.195C749.387 426.328 750.054 422.595 749.787 421.795C749.254 420.061 740.854 435.128 739.521 440.461C738.987 442.328 737.654 443.928 736.587 443.928C731.521 443.928 730.054 423.795 733.521 401.261C736.854 379.528 739.254 360.061 738.854 359.528C738.587 359.261 736.187 365.528 733.521 373.528ZM778.454 407.928C776.987 390.061 780.587 378.995 797.787 347.661C802.721 338.861 806.854 331.661 807.121 331.928C807.387 332.195 804.587 339.661 800.854 348.461C791.521 371.128 788.321 382.995 788.187 396.461C788.054 405.661 788.454 407.795 790.321 409.128C794.054 411.395 799.254 407.261 805.387 397.261C808.187 392.328 810.854 388.994 811.121 389.794C811.654 391.528 803.387 416.061 796.321 432.995C792.187 442.995 790.587 445.661 789.254 444.594C786.454 442.194 779.387 418.328 778.454 407.928ZM759.654 321.395C741.654 357.528 739.921 387.795 754.721 410.195C756.587 413.128 758.854 415.261 759.654 414.995C760.987 414.461 771.121 379.128 771.254 374.195C771.521 370.328 768.187 373.795 765.787 379.928C764.321 383.661 762.321 387.528 761.254 388.595C759.654 390.195 759.121 390.195 757.387 388.461C752.587 383.661 750.987 356.861 754.721 342.861C755.787 338.595 759.121 329.395 762.187 322.328C765.121 315.395 767.254 309.395 766.854 308.995C766.454 308.595 763.254 314.195 759.654 321.395ZM709.121 388.594C695.387 360.728 697.921 330.994 716.454 302.994C720.187 297.261 721.921 297.261 719.654 302.861C718.721 304.861 716.587 312.461 714.721 319.794C709.521 340.461 710.454 361.261 716.987 364.728C719.521 366.061 720.187 365.794 722.587 362.461C735.121 345.261 734.587 348.994 718.987 386.594C717.121 390.994 714.854 394.594 713.921 394.594C712.854 394.594 710.721 391.928 709.121 388.594ZM746.321 256.861C736.587 272.994 733.254 280.061 730.721 291.128C728.587 299.661 728.454 302.461 729.787 312.461C731.921 328.594 734.854 337.928 737.787 337.928C739.254 337.928 743.254 333.261 748.321 325.528C757.654 311.394 759.387 308.328 759.387 305.128C759.387 303.261 758.854 303.394 756.454 306.061C751.387 311.394 745.787 315.261 743.254 315.261C736.187 315.261 737.121 288.194 744.854 268.994C753.387 247.661 754.054 245.928 753.521 245.928C753.254 245.928 750.054 250.861 746.321 256.861ZM761.521 267.928C759.787 250.461 767.921 222.861 780.987 201.661C783.254 198.061 785.254 195.394 785.654 195.794C785.921 196.061 784.321 201.928 782.054 208.861C779.787 215.661 776.721 226.328 775.254 232.594C772.321 245.261 769.921 269.928 771.521 271.794C773.521 274.061 778.721 271.261 782.454 265.928C786.587 260.061 791.387 256.594 791.387 259.528C791.387 264.194 772.054 288.594 768.454 288.594C765.787 288.594 762.587 278.994 761.521 267.928ZM749.921 161.528C743.921 171.128 737.787 184.061 733.921 195.261C731.521 202.194 730.854 206.861 730.854 218.594C730.721 232.194 730.987 233.794 734.587 240.861C736.987 245.528 739.387 248.594 740.721 248.594C744.587 248.594 763.387 220.194 763.387 214.328C763.387 213.128 760.454 214.994 755.921 219.128C748.054 226.328 742.854 228.594 740.321 226.061C739.387 224.994 738.721 220.194 738.854 213.528C738.987 202.328 739.921 198.861 751.921 166.061C753.921 160.728 755.387 155.794 755.121 155.128C754.854 154.461 752.587 157.394 749.921 161.528ZM698.721 195.261C698.721 185.794 699.121 184.194 705.654 170.861C709.521 162.994 713.121 156.594 713.921 156.594C715.121 156.594 712.987 166.728 709.254 177.661C705.521 188.994 707.387 203.261 712.721 203.261C713.787 203.261 716.054 200.194 726.321 185.394C726.854 184.594 727.654 184.461 728.054 184.861C729.387 186.194 723.921 200.061 717.787 210.861C710.587 223.528 707.921 223.928 702.454 212.861C699.387 206.594 698.721 203.528 698.721 195.261ZM804.187 160.861C794.454 195.928 793.521 201.261 793.387 217.261C793.387 230.861 793.921 234.328 796.454 240.861C798.587 246.061 800.321 248.594 801.787 248.594C804.054 248.594 810.454 238.728 817.787 223.928C826.721 205.661 827.254 195.794 818.454 210.594C812.187 221.261 806.587 227.661 804.321 226.861C798.987 225.128 800.321 190.728 806.721 160.861C807.121 159.261 806.854 157.928 806.187 157.928C805.521 157.928 804.721 159.261 804.187 160.861ZM771.254 344.594C767.921 324.861 774.454 300.728 789.121 278.328C792.187 273.794 794.721 270.194 794.987 270.328C795.121 270.594 792.587 276.994 789.387 284.594C782.721 299.794 779.921 309.261 778.721 321.261C777.787 329.394 779.387 336.594 782.054 336.594C782.854 336.594 786.187 334.061 789.387 331.128C792.721 328.061 795.787 325.928 796.321 326.461C796.854 326.994 794.187 333.528 790.321 340.994C786.587 348.461 782.587 356.861 781.521 359.528C780.454 362.328 778.987 364.594 778.321 364.594C776.321 364.594 772.854 354.861 771.254 344.594ZM814.054 244.194C810.854 249.794 806.054 259.528 803.521 265.794C799.387 276.061 798.854 278.594 798.721 289.928C798.721 303.794 801.787 313.928 805.921 313.928C809.521 313.794 826.454 284.461 824.187 282.328C823.787 281.928 821.387 283.794 818.854 286.594C811.787 293.928 810.721 292.594 810.854 277.128C810.854 265.661 811.521 262.061 815.787 249.261C818.454 241.261 820.454 234.594 820.187 234.328C820.054 234.061 817.254 238.594 814.054 244.194ZM812.187 347.928C812.321 336.061 814.987 327.261 824.321 307.661C828.454 299.128 832.054 292.728 832.454 293.661C832.721 294.594 830.987 302.594 828.721 311.661C822.854 333.661 821.921 339.261 822.854 343.528C823.787 348.194 827.254 348.328 831.387 343.928C833.121 342.061 835.121 340.594 835.787 340.594C836.854 340.594 823.387 367.394 820.454 370.994C816.721 375.528 812.054 362.461 812.187 347.928ZM851.521 258.195C842.587 277.395 840.054 286.995 841.254 298.195C842.454 309.395 843.654 311.261 847.254 308.061C852.454 303.394 860.321 287.261 857.521 287.261C856.987 287.261 855.121 288.195 853.387 289.395C844.587 295.128 845.521 283.261 855.521 257.528C861.254 243.394 861.254 243.261 859.654 243.261C858.987 243.261 855.387 250.061 851.521 258.195ZM832.721 256.994C827.521 243.128 829.121 220.594 836.454 203.928C839.654 196.861 840.054 196.328 840.454 199.528C840.721 201.528 839.654 209.128 838.187 216.461C833.254 240.194 834.987 249.528 842.987 242.728C845.121 240.994 847.654 237.928 848.587 236.061C850.587 232.461 852.721 231.528 852.721 234.194C852.721 237.528 838.854 264.594 837.254 264.594C836.321 264.594 834.321 261.128 832.721 256.994ZM816.187 118.194C814.587 131.928 815.254 161.794 817.521 171.394C819.921 181.661 826.321 191.661 830.987 192.328C834.587 192.861 836.854 189.394 840.721 178.194C846.187 161.661 845.654 150.194 840.054 164.728C838.587 168.594 836.054 172.461 834.321 173.661C831.521 175.528 830.987 175.528 828.721 173.128C825.254 169.661 820.721 146.461 819.787 126.994C819.387 118.328 818.587 111.261 818.054 111.261C817.521 111.261 816.721 114.461 816.187 118.194ZM847.787 181.528C848.321 172.194 852.854 150.194 854.854 146.994C856.721 144.061 856.987 147.528 856.054 163.661C854.987 185.128 856.054 190.861 862.854 196.328C867.254 199.928 867.521 200.594 866.587 205.394C865.121 213.661 862.854 214.328 856.187 208.594C849.254 202.461 846.854 194.861 847.787 181.528ZM756.721 739.128C756.721 743.794 760.721 762.461 763.521 770.861C764.987 775.394 769.254 784.061 772.854 790.061C777.254 797.394 778.987 801.394 777.921 802.061C777.121 802.461 767.921 806.061 757.521 809.794C727.121 820.994 724.587 822.061 713.521 827.661C693.921 837.661 683.654 851.394 679.921 872.728C676.721 890.861 680.187 914.461 688.321 928.194C691.654 933.928 691.787 937.394 689.254 947.928C689.222 948.088 689.136 948.557 689.005 949.269L689.004 949.275L689.002 949.288C688.587 951.545 687.73 956.212 686.721 961.261C685.521 967.794 684.187 974.328 683.921 975.528C683.387 977.128 683.921 977.928 685.254 977.928C686.454 977.928 687.387 979.128 687.387 980.594C687.387 982.328 688.321 983.261 689.921 983.261C691.521 983.261 692.721 984.328 692.987 986.194C693.254 987.928 694.587 989.128 696.454 989.394C698.854 989.794 699.387 989.261 699.387 986.194C699.387 984.194 699.787 979.528 700.187 975.928L700.987 969.261L695.521 969.128C688.721 968.861 687.387 967.794 690.854 965.261C692.454 963.928 694.987 963.528 697.654 963.928C702.187 964.728 702.321 964.594 704.054 955.261C704.587 952.728 708.187 944.594 712.054 937.261C720.987 920.328 739.387 883.661 739.387 882.594C739.387 880.861 766.587 839.528 770.454 835.394C772.854 832.994 780.187 826.461 786.721 820.861C793.387 815.394 798.854 810.461 799.121 809.794C799.387 809.261 796.854 805.128 793.521 800.594C780.987 783.661 774.054 768.194 770.187 749.128L767.787 737.261L762.187 736.861C757.521 736.461 756.721 736.861 756.721 739.128ZM637.121 1045.13C636.854 1044.33 638.454 1041.26 640.587 1038.33C644.454 1032.99 644.587 1032.86 649.921 1034.33C653.654 1035.39 656.587 1035.39 659.921 1034.33C664.454 1032.99 664.587 1032.99 668.054 1038.19C670.054 1041.13 671.254 1044.19 670.987 1045.13C670.187 1047.26 659.921 1049.93 653.121 1049.79C646.854 1049.66 637.787 1046.99 637.121 1045.13ZM674.187 1021.93L671.521 1027.39L675.121 1033.26C677.121 1036.46 679.121 1039.26 679.654 1039.26C681.521 1039.26 687.654 1029.79 689.387 1024.06C691.121 1018.46 691.121 1018.19 688.321 1017.39C686.721 1016.99 683.387 1016.59 681.121 1016.59C677.387 1016.59 676.454 1017.39 674.187 1021.93ZM674.454 1006.19C672.587 1000.59 672.721 1000.19 675.921 995.128C677.921 992.328 679.921 989.928 680.587 989.928C682.854 989.928 686.987 997.128 689.254 1004.46C690.454 1008.46 691.387 1011.93 691.387 1012.19C691.387 1012.46 688.054 1012.59 683.921 1012.33L676.454 1011.93L674.454 1006.19ZM695.654 1038.19C695.921 1040.46 695.387 1041.26 693.387 1041.26C691.387 1041.26 690.854 1042.06 691.121 1044.19C691.521 1046.59 690.854 1047.26 688.854 1047.26C686.987 1047.26 686.054 1048.06 686.054 1049.93C686.054 1051.93 685.254 1052.46 683.121 1052.19C680.854 1052.06 680.054 1052.59 680.321 1054.33C680.454 1056.33 679.787 1056.59 677.387 1056.06C675.387 1055.53 674.054 1055.93 673.521 1057.39C672.987 1058.73 671.787 1059.13 670.187 1058.59C668.454 1058.06 667.121 1058.59 666.321 1060.19C665.121 1062.06 664.587 1062.19 662.854 1060.73C661.121 1059.26 660.321 1059.26 658.721 1060.59C657.254 1061.79 656.321 1061.93 654.987 1060.73C653.921 1059.93 652.721 1059.66 652.321 1060.19C650.454 1061.93 651.521 1063.13 655.787 1063.93C658.054 1064.46 660.721 1065.26 661.387 1065.66C662.187 1066.19 663.387 1066.59 664.054 1066.73C667.387 1067.39 681.654 1069.93 684.721 1070.46C685.424 1070.61 686.488 1070.82 687.734 1071.06C689.792 1071.46 692.345 1071.96 694.587 1072.46C698.187 1073.26 701.521 1073.66 701.787 1073.26C702.187 1072.86 703.387 1073.39 704.454 1074.33C706.187 1075.66 706.454 1075.53 705.521 1073.26C704.987 1071.79 703.254 1062.59 701.654 1052.99C699.654 1040.73 698.187 1035.26 696.987 1035.26C695.921 1035.26 695.387 1036.46 695.654 1038.19ZM621.521 1028.99C620.721 1026.59 621.387 1026.06 625.654 1024.86C628.454 1024.19 631.787 1023.53 632.987 1023.39C636.587 1023.13 637.254 1028.06 634.187 1032.33C629.387 1039.13 628.187 1039.66 625.121 1035.53C623.654 1033.53 622.054 1030.59 621.521 1028.99ZM547.121 984.061C543.387 986.061 536.321 999.261 532.721 1010.86C531.254 1015.79 530.454 1016.46 527.521 1016.33C517.521 1015.66 516.987 1017.13 526.721 1018.59C537.902 1020.47 541.582 1021.09 542.793 1019.64C543.387 1018.93 543.387 1017.73 543.387 1015.93C543.387 1009.39 547.921 998.195 553.387 991.395C558.587 984.861 558.987 983.928 555.921 982.728C552.854 981.528 551.121 981.795 547.121 984.061ZM506.054 1024.59C506.054 1023.26 506.721 1021.93 507.521 1021.66C508.321 1021.39 516.987 1022.19 526.587 1023.66C534.262 1024.73 542.959 1025.88 548.183 1026.57L548.196 1026.57L548.328 1026.59C549.574 1026.75 550.615 1026.89 551.387 1026.99C557.787 1027.79 558.721 1028.33 559.121 1031.13C559.654 1034.19 559.521 1034.19 550.454 1033.39C545.521 1032.86 538.454 1031.93 534.721 1031.26C531.923 1030.74 526.467 1029.9 521.359 1029.12L521.356 1029.12L521.347 1029.11C519.886 1028.89 518.454 1028.67 517.121 1028.46C507.921 1027.26 506.054 1026.46 506.054 1024.59ZM531.787 1034.86C527.654 1036.46 531.787 1042.73 535.921 1041.13C537.254 1040.59 538.054 1039.13 537.787 1037.39C537.387 1034.59 534.854 1033.53 531.787 1034.86ZM516.454 1040.06C506.187 1038.86 504.721 1038.19 504.721 1034.99C504.721 1032.33 505.254 1032.33 513.787 1033.13C522.854 1034.06 527.121 1036.33 525.387 1039.26C524.721 1040.46 522.054 1040.59 516.454 1040.06ZM543.387 1040.33C543.387 1043.53 544.854 1044.19 555.254 1045.39C562.854 1046.19 563.387 1046.06 563.387 1043.53C563.387 1039.79 562.721 1039.53 552.321 1038.46C543.921 1037.66 543.387 1037.66 543.387 1040.33ZM590.587 1007.53C591.121 1004.06 592.454 998.461 593.654 994.861C595.921 988.461 596.587 988.061 601.654 989.394C604.187 990.061 604.321 990.594 603.121 994.328C602.454 996.728 601.387 1002.33 600.721 1006.99C600.187 1011.66 599.254 1015.79 598.987 1016.19C598.587 1016.46 591.521 1018.59 583.121 1020.73C568.587 1024.46 565.387 1024.59 553.787 1022.46C550.587 1021.79 550.321 1021.39 551.654 1019.26C554.321 1014.99 558.987 1013.93 574.587 1013.93H589.787L590.587 1007.53ZM948.054 795.128C947.521 796.061 955.254 819.928 958.321 827.128C959.521 829.528 960.721 831.128 960.987 830.461C961.387 829.794 961.787 821.661 961.921 812.328C962.187 797.128 962.054 795.395 959.787 794.728C956.721 793.795 948.721 794.061 948.054 795.128ZM968.587 845.794C964.054 838.728 963.787 834.194 966.321 810.461L967.921 795.261L974.587 796.061C987.654 797.661 1006.45 801.928 1017.79 805.928C1023.92 808.061 1029.39 810.061 1029.65 810.461C1030.05 810.728 1029.25 812.861 1028.19 815.128C1026.99 817.261 1026.05 820.194 1026.05 821.394C1026.05 822.594 1021.25 835.661 1015.25 850.461C1011.63 859.321 1005.96 873.435 1000.19 887.808L1000.19 887.813L1000.17 887.854L1000.14 887.945L1000.12 887.987C996.359 897.349 992.559 906.812 989.254 914.994C980.854 935.794 973.521 953.794 972.987 954.861C972.187 956.194 971.121 951.661 970.054 941.928C968.054 924.594 968.987 894.995 972.054 875.261C974.321 860.061 973.654 853.928 968.587 845.794ZM1030.85 822.328C1028.32 827.528 1017.25 854.728 1006.19 882.594C995.121 910.461 985.521 934.461 984.854 935.928C984.187 937.394 981.254 944.594 978.321 951.928C973.521 964.194 973.121 965.928 973.921 973.794L974.721 982.461L989.387 964.728C1011.65 937.795 1043.39 899.528 1061.79 877.528C1070.85 866.594 1078.59 856.728 1079.12 855.528C1079.52 854.194 1081.52 851.528 1083.52 849.261C1086.32 846.328 1086.85 844.994 1085.79 843.528C1081.79 838.861 1050.59 818.861 1040.45 814.594L1035.52 812.594L1030.85 822.328ZM972.454 991.261C1009.65 945.795 1080.72 860.728 1085.79 855.261C1088.45 852.328 1091.39 850.061 1092.05 849.928C1095.25 849.928 1123.79 881.528 1128.19 890.328C1130.32 894.194 1130.32 894.594 1128.05 895.928C1126.72 896.594 1123.79 898.861 1121.52 900.728C1119.25 902.728 1112.85 907.128 1107.39 910.594C1096.45 917.528 1075.12 931.394 1052.19 946.461C1047.04 949.804 1040.91 953.752 1035.98 956.926L1035.93 956.96C1033.21 958.709 1030.86 960.22 1029.25 961.261C1024.59 964.195 1010.19 973.394 997.254 981.794C974.187 996.594 968.721 999.528 968.721 996.994C968.721 996.328 970.321 993.795 972.454 991.261ZM1127.39 902.994C1120.85 906.594 1105.65 916.195 1078.72 933.661C1059.53 946.204 1051.1 951.637 1036.26 961.204C1030.27 965.061 1023.25 969.59 1014.05 975.528C974.587 1000.86 972.587 1002.19 973.254 1002.86C973.521 1003.26 990.187 999.261 1010.32 994.061C1018.63 991.957 1030.04 989.047 1042.44 985.886C1059.89 981.438 1079.29 976.492 1094.72 972.595C1121.12 965.928 1144.59 959.528 1146.99 958.461C1149.25 957.394 1152.32 956.595 1153.79 956.595C1155.39 956.595 1156.85 956.061 1157.25 955.528C1159.12 952.461 1141.39 909.128 1135.12 901.794C1133.52 899.928 1132.85 899.928 1127.39 902.994ZM1148.05 963.794C1150.99 963.394 1153.65 962.861 1153.92 962.461C1154.32 962.061 1155.79 961.928 1157.25 962.194C1161.25 962.728 1163.52 976.994 1163.79 1001.93L1164.05 1022.59L1150.72 1022.33C1137.12 1022.06 993.787 1013.26 980.987 1011.79C975.654 1011.26 974.054 1010.59 974.321 1008.99C974.587 1007.66 982.054 1005.13 1000.05 1000.59C1014.05 997.128 1051.79 987.528 1084.05 979.261C1116.32 971.128 1145.12 964.061 1148.05 963.794ZM972.854 1016.46C973.387 1018.06 992.587 1025.53 1062.72 1051.26C1072.99 1054.99 1094.19 1062.86 1109.92 1068.73C1125.52 1074.46 1140.05 1079.53 1142.19 1079.93C1144.19 1080.33 1147.39 1081.13 1149.25 1081.93C1152.59 1083.13 1152.72 1082.86 1155.25 1074.86C1158.59 1064.06 1163.12 1042.86 1163.65 1035.26L1164.05 1029.26L1156.05 1027.66C1151.65 1026.86 1127.92 1024.86 1103.39 1023.26C1078.85 1021.66 1044.99 1019.53 1028.05 1018.59C1020.32 1018.1 1012.03 1017.56 1004.65 1017.07L1004.63 1017.07L1004.58 1017.06C995.952 1016.5 988.587 1016.01 984.854 1015.79C975.387 1015.13 972.454 1015.26 972.854 1016.46ZM981.521 1034.46C975.254 1029.53 970.054 1024.59 970.054 1023.66C970.054 1022.73 970.854 1021.93 971.787 1021.93C972.587 1021.93 987.787 1027.26 1005.39 1033.79C1137.92 1083.26 1146.85 1086.73 1149.92 1089.39C1152.05 1091.26 1123.12 1141.13 1118.85 1142.73C1116.59 1143.66 1110.45 1139.39 1090.85 1123.53C1089.46 1122.39 1087.73 1120.98 1085.76 1119.37L1085.75 1119.37L1085.44 1119.11L1085.4 1119.08L1085.35 1119.04C1075.05 1110.63 1058.2 1096.89 1044.19 1085.53C1037.43 1079.99 1030.41 1074.27 1024.07 1069.08L1023.97 1069L1023.94 1068.98C1014.45 1061.23 1006.47 1054.72 1003.12 1051.93C1001.25 1050.41 998.909 1048.52 996.394 1046.49C993.237 1043.93 989.8 1041.15 986.645 1038.6L986.38 1038.39L981.521 1034.46ZM966.587 1028.99C966.187 1030.19 967.787 1034.06 970.454 1038.19C993.387 1073.39 1017.52 1110.73 1047.65 1157.66C1055.52 1169.93 1061.92 1180.33 1062.05 1180.86C1062.05 1181.53 1061.25 1181.93 1060.32 1181.93C1059.52 1181.93 1053.92 1174.46 1048.05 1165.26C1043.83 1158.64 1037.47 1148.78 1031.9 1140.14C1029.73 1136.77 1027.68 1133.59 1025.92 1130.86C1019.65 1121.26 1007.65 1102.73 999.387 1089.93C997.668 1087.27 995.817 1084.4 993.912 1081.45C986.655 1070.2 978.623 1057.75 974.187 1050.99C968.587 1042.46 963.387 1034.33 962.587 1032.99C958.587 1026.59 959.121 1037.26 963.387 1049.93C964.054 1051.79 966.321 1060.46 968.587 1069.26C972.721 1085.13 996.587 1175.79 1001.92 1195.53C1002.11 1196.23 1002.29 1196.89 1002.46 1197.51C1004.4 1204.64 1004.93 1206.57 1004.3 1207.08C1004.03 1207.3 1003.54 1207.26 1002.85 1207.26C1001.65 1207.26 1000.05 1203.26 998.187 1195.53C996.587 1189.13 993.787 1178.46 992.054 1171.93C990.463 1166.25 983.738 1141.09 976.09 1112.49C974.765 1107.53 973.413 1102.47 972.054 1097.39C962.987 1062.99 955.121 1034.59 954.721 1034.19C952.721 1032.19 951.654 1037.66 950.187 1055.93C949.387 1066.86 948.721 1076.99 948.721 1078.19C948.721 1079.39 950.987 1081.79 953.787 1083.53C960.987 1087.93 964.454 1092.46 965.921 1099.53C967.121 1104.99 966.987 1106.46 964.721 1110.33C961.921 1114.99 954.721 1119.26 949.387 1119.26C946.987 1119.26 945.921 1120.19 945.521 1122.19C945.121 1123.93 943.521 1145.26 941.921 1169.53C939.654 1203.93 938.454 1213.93 937.121 1213.93C936.054 1213.93 935.387 1212.19 935.387 1209.26C935.387 1205.39 939.121 1152.06 941.254 1126.19C941.654 1121.53 941.254 1118.86 940.321 1118.59C939.387 1118.19 933.121 1117.79 926.321 1117.66L913.787 1117.26L898.054 1159.26C889.254 1182.33 881.921 1201.79 881.654 1202.59C881.254 1203.53 880.587 1203.39 879.521 1202.59C878.454 1201.53 879.387 1197.93 882.721 1189.26C884.823 1183.73 889.863 1170.21 894.87 1156.78L894.871 1156.78L894.883 1156.74L894.907 1156.68L894.919 1156.65L894.963 1156.53L895.034 1156.34L895.42 1155.3L897.921 1148.59C900.676 1141.14 903.283 1134.13 905.316 1128.67C907.613 1122.5 909.175 1118.3 909.387 1117.66C910.321 1115.39 907.521 1114.59 892.721 1113.26C882.187 1112.33 876.854 1111.53 875.521 1110.59C874.854 1110.19 868.054 1117.53 860.587 1126.86C855.607 1133.06 850.055 1139.9 845.88 1145.03L845.868 1145.05L845.864 1145.05L845.806 1145.13L845.787 1145.15L845.623 1145.35C843.543 1147.91 841.825 1150.03 840.721 1151.39C826.854 1168.59 825.387 1170.46 826.054 1170.59C826.454 1170.59 824.721 1173.13 822.321 1175.93L817.921 1181.26L821.254 1184.19C827.121 1189.26 847.787 1201.39 859.387 1206.59C865.654 1209.39 871.654 1212.46 872.721 1213.39C873.921 1214.33 875.921 1215.13 877.387 1214.99C878.854 1214.99 886.987 1216.73 895.387 1218.99C915.787 1224.33 930.187 1226.19 949.387 1225.93C965.521 1225.66 989.654 1223.13 997.787 1220.73C1000.19 1219.93 1003.12 1219.79 1004.19 1220.19C1005.25 1220.59 1006.85 1220.33 1007.79 1219.53C1008.59 1218.86 1015.39 1215.93 1022.72 1213.26C1034.85 1208.73 1058.99 1196.99 1062.99 1193.66C1063.92 1192.99 1065.25 1192.73 1066.05 1193.26C1066.72 1193.66 1067.79 1193.13 1068.19 1192.06C1068.59 1190.99 1073.39 1186.73 1078.99 1182.59C1084.45 1178.46 1094.72 1169.39 1101.79 1162.46L1114.59 1149.79L1108.05 1143.53C1104.32 1140.06 1090.32 1128.19 1076.85 1117.26C1068.3 1110.23 1059 1102.67 1052.02 1096.99C1048 1093.73 1044.75 1091.09 1042.85 1089.53C1037.65 1085.13 1030.72 1079.53 1027.39 1076.86C1024.19 1074.06 1017.52 1068.59 1012.59 1064.59C1011.04 1063.34 1009.04 1061.7 1006.81 1059.87L1006.79 1059.86L1006.79 1059.85L1006.78 1059.84L1006.76 1059.83C1001.91 1055.85 995.992 1051 991.254 1047.26C984.454 1041.79 976.321 1034.99 973.121 1032.06C968.587 1027.93 967.254 1027.39 966.587 1028.99ZM772.187 1131.39C776.321 1128.06 789.921 1118.33 801.387 1110.73C812.721 1103.13 815.254 1102.06 818.721 1102.73C820.987 1103.26 824.187 1103.79 826.054 1103.93C827.921 1104.06 833.654 1104.86 838.721 1105.79C843.921 1106.59 852.721 1108.06 858.321 1108.99L868.587 1110.59L855.121 1127.26C847.787 1136.46 840.054 1146.33 837.787 1149.26C835.654 1152.19 829.254 1159.79 823.654 1166.19C816.454 1174.33 812.987 1177.39 811.654 1176.73C803.654 1172.19 769.787 1133.39 772.187 1131.39ZM930.054 1025.93C928.187 1027.26 905.121 1042.59 878.721 1059.93C862.541 1070.55 847.413 1080.52 837.603 1086.99C831.406 1091.07 827.331 1093.76 826.454 1094.33C824.054 1095.93 822.587 1097.39 823.121 1097.53C824.854 1098.19 869.121 1104.59 871.387 1104.59C872.587 1104.59 876.454 1100.86 880.187 1096.19C882.613 1093.25 889.036 1085.29 896.64 1075.87L896.662 1075.85L896.683 1075.82C899.075 1072.86 901.584 1069.75 904.121 1066.61C905.917 1064.39 907.727 1062.15 909.521 1059.93C933.387 1030.33 936.721 1025.93 936.721 1024.33C936.721 1022.46 933.521 1023.26 930.054 1025.93ZM930.023 1040.58L931.459 1038.79C932.109 1037.99 932.667 1037.29 933.121 1036.73C937.654 1031.26 941.521 1027.53 941.787 1028.33C942.187 1029.79 937.521 1043.93 935.521 1046.59C934.987 1047.26 933.787 1050.33 932.854 1053.26C931.921 1056.19 926.987 1070.19 921.787 1084.19L912.321 1109.93L906.854 1109.26C904.039 1108.89 898.753 1108.41 894.502 1108.03L894.495 1108.03L893.387 1107.93C892.062 1107.81 890.832 1107.71 889.701 1107.63L889.696 1107.63H889.695C884.796 1107.25 881.768 1107.01 880.956 1105.55C879.642 1103.18 884.131 1097.59 895.885 1082.96C897.606 1080.81 899.483 1078.48 901.521 1075.93C912.329 1062.58 923.868 1048.23 930.023 1040.58ZM929.521 1075.53C923.787 1089.53 916.321 1110.06 916.854 1110.46C918.187 1111.79 942.054 1112.73 942.054 1111.53C942.054 1110.73 941.121 1109.79 939.921 1109.39C938.854 1108.99 938.187 1108.06 938.721 1107.39C939.121 1106.73 938.854 1105.79 938.187 1105.26C936.587 1104.33 936.721 1099.13 938.454 1096.86C939.121 1096.06 939.387 1095.26 938.987 1095.26C938.587 1095.26 939.654 1093.66 941.521 1091.66C945.121 1087.66 945.121 1085.53 941.254 1084.86C936.854 1084.06 931.121 1077.66 931.787 1074.19C932.587 1069.93 931.521 1070.59 929.521 1075.53ZM949.521 1106.86C947.921 1106.33 946.854 1100.06 947.921 1097.13C948.321 1096.06 949.254 1095.26 949.921 1095.26C951.787 1095.26 955.387 1099.13 955.387 1101.26C955.387 1103.66 951.387 1107.53 949.521 1106.86ZM946.187 1040.86C946.187 1042.19 945.521 1043.26 944.987 1043.26C943.521 1043.26 938.454 1053.26 937.254 1058.19C934.721 1069.13 936.321 1076.73 941.654 1079.13C944.187 1080.33 944.721 1080.19 944.721 1078.46C944.721 1077.26 945.387 1069.26 946.187 1060.59C946.987 1051.93 947.387 1043.39 946.987 1041.66C946.587 1039.79 946.321 1039.53 946.187 1040.86ZM946.054 1031.79C946.054 1030.99 946.454 1029.93 946.987 1029.53C947.387 1028.99 948.187 1028.86 948.587 1029.26C948.854 1029.66 948.454 1030.73 947.654 1031.53C946.721 1032.46 946.054 1032.59 946.054 1031.79ZM953.787 1011.53C953.521 1013.79 952.321 1014.73 949.654 1014.99C947.654 1015.26 946.321 1015.93 946.721 1016.46C947.921 1018.59 953.787 1016.33 955.254 1013.13C956.987 1009.13 957.121 1008.59 955.521 1008.59C954.854 1008.59 954.054 1009.93 953.787 1011.53ZM760.987 1115.53C755.254 1105.39 748.721 1091.93 748.721 1090.46C748.721 1089.79 757.121 1090.99 770.054 1093.53C775.521 1094.59 785.921 1096.59 792.987 1097.79C804.854 1099.79 808.721 1101.13 807.254 1102.46C805.787 1103.66 779.121 1120.59 778.587 1120.59C778.321 1120.59 775.654 1122.06 772.721 1123.93L767.521 1127.26L760.987 1115.53ZM914.454 1023.26C909.921 1024.46 905.254 1026.33 904.187 1027.13C903.121 1028.06 901.654 1028.46 900.854 1028.06C899.787 1027.26 885.121 1031.13 809.387 1052.19C803.053 1053.92 796.893 1055.62 791.755 1057.04L791.73 1057.05L791.719 1057.05L791.642 1057.08C784.941 1058.93 780.001 1060.29 778.721 1060.59C766.454 1063.66 753.254 1067.66 752.054 1068.59C751.387 1069.13 748.721 1070.06 746.321 1070.59C742.587 1071.39 742.054 1071.93 742.854 1074.33C745.387 1082.33 745.921 1083.13 750.987 1083.93C753.787 1084.46 757.921 1085.39 760.054 1085.93C763.254 1086.86 786.854 1091.26 799.387 1093.13C800.454 1093.26 802.321 1093.93 803.521 1094.46C804.721 1094.99 806.187 1095.26 806.854 1095.13C807.521 1094.99 809.654 1095.26 811.787 1095.79C812 1095.86 812.189 1095.93 812.367 1095.99C812.549 1096.06 812.721 1096.12 812.897 1096.17C815.618 1096.93 819.218 1094.57 878.721 1055.44C881.892 1053.35 885.223 1051.16 888.721 1048.86C910.321 1034.59 928.587 1022.46 929.387 1021.79C931.254 1019.93 923.654 1020.59 914.454 1023.26ZM798.054 1024.46C798.054 1027.13 802.587 1027.26 805.254 1024.59C807.654 1022.19 809.654 1021.93 825.387 1021.93C837.254 1021.93 843.387 1022.46 844.454 1023.53C845.654 1024.73 846.454 1024.73 847.654 1023.53C849.521 1021.66 898.054 1021.26 898.054 1023.13C898.054 1023.66 887.387 1027.13 874.454 1030.59C848.18 1037.7 835.32 1041.22 820.487 1045.28L820.42 1045.3C811.335 1047.79 801.501 1050.48 787.387 1054.33C767.254 1059.93 748.321 1064.59 745.521 1064.86C740.721 1065.26 740.187 1064.99 739.121 1061.26C737.387 1054.86 734.054 1033.66 734.054 1028.19V1023.26H766.054C783.921 1023.26 798.054 1023.79 798.054 1024.46ZM733.121 1002.86C734.187 1003.79 764.854 1003.66 765.787 1002.59C766.187 1002.19 758.854 1001.93 749.387 1001.93C739.921 1001.93 732.721 1002.33 733.121 1002.86ZM836.721 1001.26C836.721 998.728 840.854 991.395 844.054 988.195C848.721 983.661 856.721 982.995 856.721 987.261C856.721 988.728 856.187 989.928 855.654 989.928C855.121 989.928 852.854 992.594 850.854 995.928C847.387 1001.39 846.454 1001.93 841.921 1001.93C838.987 1001.93 836.721 1001.66 836.721 1001.26ZM892.854 996.861C892.054 999.128 891.387 1001.26 891.387 1001.39C891.387 1001.66 893.387 1001.93 895.921 1001.93C898.854 1001.93 900.721 1001.13 901.254 999.794C902.587 996.328 902.187 995.528 898.187 994.195C894.454 992.861 894.187 993.128 892.854 996.861ZM734.587 986.328C735.121 980.994 735.787 975.661 736.321 974.594C737.121 972.328 740.854 972.061 752.054 973.928C756.454 974.594 764.854 975.528 770.721 975.928C793.921 977.528 797.521 977.928 802.454 978.728C805.521 979.261 807.254 980.061 806.854 980.994C806.454 981.928 804.854 986.594 803.387 991.528L800.454 1000.59H792.987C785.521 1000.59 760.721 998.861 742.854 997.128L733.654 996.194L734.587 986.328ZM742.987 946.861C740.987 953.394 738.987 960.594 738.587 962.861C737.787 966.994 737.921 967.261 741.521 967.528C749.121 967.928 750.854 968.061 759.387 968.994C770.054 970.194 779.654 970.994 792.721 971.928C798.187 972.328 804.187 972.995 806.054 973.261C808.587 973.795 810.587 972.728 814.454 968.728C819.254 963.928 819.387 963.395 817.121 962.195C810.187 958.461 750.321 935.395 747.254 935.261C746.854 935.261 744.854 940.461 742.987 946.861ZM756.721 913.128C761.121 904.461 768.187 892.594 772.187 886.861C779.387 876.728 781.121 875.261 782.854 878.061C783.254 878.861 785.521 880.594 787.921 881.928C794.987 886.194 864.454 943.928 863.654 944.728C863.121 945.261 857.121 946.594 850.187 947.794C840.454 949.528 836.054 951.128 830.721 954.595C826.854 957.128 823.121 959.261 822.321 959.261C820.321 959.261 763.387 936.328 754.987 932.195L748.587 928.994L756.721 913.128ZM820.587 836.994C818.587 838.594 812.454 843.661 806.854 848.328C801.254 852.994 793.921 860.061 790.587 864.061L784.321 871.394L790.587 877.394C794.054 880.594 812.321 896.061 831.121 911.528L832.346 912.536C850.634 927.581 866.48 940.618 867.654 941.661C870.454 943.928 877.254 942.061 882.054 937.661C884.987 934.995 884.987 934.194 884.321 921.794L883.654 908.728L876.454 897.661C872.454 891.528 865.254 880.328 860.454 872.594C843.921 846.061 842.587 844.461 834.054 839.128C829.654 836.194 825.521 833.928 824.987 833.928C824.454 833.928 822.454 835.394 820.587 836.994ZM863.072 869.651C859.948 864.767 857.176 860.432 855.787 858.194C853.387 854.461 851.787 851.261 852.454 851.261C852.987 851.261 856.187 853.128 859.254 855.528C864.187 859.128 866.321 862.328 872.987 876.461C877.387 885.661 881.521 894.728 882.321 896.594C884.454 902.194 880.854 897.528 870.054 880.594C867.818 877.072 865.37 873.245 863.105 869.703L863.082 869.667L863.072 869.651ZM228.054 686.861C225.121 686.994 215.921 688.194 207.654 689.394C194.854 691.261 192.721 691.928 193.387 693.794C193.424 693.962 193.475 694.185 193.536 694.453C193.91 696.107 194.68 699.516 195.254 702.728C196.454 708.728 203.387 736.061 230.854 843.528C237.921 870.861 240.321 878.728 241.654 877.794C244.587 875.261 245.921 868.061 246.721 848.595C247.121 837.928 247.787 826.195 248.054 822.595C248.721 814.861 249.521 802.061 251.387 766.595C252.054 752.595 252.987 736.994 253.521 731.928C253.921 726.728 254.454 714.728 254.587 704.995C254.987 690.595 254.721 687.261 253.121 686.728C251.121 685.928 238.054 686.061 228.054 686.861ZM131.654 716.461C137.787 712.461 161.921 701.394 172.054 698.061C178.721 695.794 184.854 693.928 185.654 693.928C186.587 693.928 187.787 695.528 188.187 697.528C188.721 699.661 189.521 701.794 190.054 702.594C190.721 703.261 196.321 724.328 202.721 749.261C207.687 769.02 212.736 788.527 215.282 798.361L215.286 798.376L215.287 798.381L215.298 798.421C215.956 800.966 216.446 802.857 216.721 803.928C225.521 837.261 236.854 883.528 236.321 884.194C234.987 885.528 233.121 883.261 225.254 870.994C216.854 857.661 194.187 821.794 158.987 766.328C132.987 725.261 128.987 718.061 131.654 716.461ZM112.721 729.261C107.254 733.394 96.8539 742.461 89.6539 749.661L76.7206 762.594L82.9872 768.728C86.5872 772.194 97.2539 781.394 106.721 789.261C114.076 795.187 121.746 801.504 126.249 805.213L126.252 805.216C127.624 806.346 128.702 807.234 129.387 807.794C131.526 809.642 138.346 815.248 146.277 821.767C149.221 824.188 152.319 826.734 155.387 829.261C158.07 831.471 161.291 834.121 164.831 837.034C176.243 846.424 190.968 858.541 201.654 867.394C215.787 878.994 227.921 888.594 228.721 888.594C231.387 888.594 229.787 885.128 218.854 868.061C212.721 858.461 198.187 835.528 186.721 817.261C133.254 732.328 126.454 722.194 124.054 722.061C123.254 721.928 118.187 725.261 112.721 729.261ZM42.8539 818.595C44.4539 812.995 58.5872 787.528 65.1206 778.328C68.9872 772.994 72.7206 768.595 73.5206 768.595C74.3206 768.595 76.0539 769.928 77.5206 771.394C78.8539 772.994 81.2539 774.728 82.7206 775.261C84.1872 775.928 95.2539 784.595 107.387 794.595C127.387 811.128 148.587 828.595 194.721 866.595C197.71 869.049 200.775 871.578 203.639 873.942C209.333 878.641 214.236 882.686 216.187 884.195C218.987 886.595 222.587 889.395 224.054 890.461C225.921 891.928 226.321 892.861 225.254 893.928C224.187 894.995 215.121 891.928 191.921 882.595C186.638 880.458 181.527 878.394 176.926 876.536L176.878 876.516L176.837 876.5C166.267 872.232 158.408 869.058 157.387 868.595C153.654 866.861 125.921 855.795 114.054 851.261C95.6539 844.195 57.5206 828.594 49.7872 824.861C43.3872 821.928 42.1872 820.861 42.8539 818.595ZM37.6539 832.461C32.0539 846.195 24.7206 885.128 27.1206 887.528C27.7872 888.195 45.6539 889.795 66.8539 891.261L66.9131 891.265L66.9297 891.266L66.9348 891.267C88.1078 892.732 109.26 894.195 114.054 894.461C118.854 894.861 132.987 895.795 145.387 896.595C153.466 897.024 164.316 897.731 173.935 898.358C179.239 898.703 184.168 899.024 188.054 899.261L189.931 899.394C218.658 901.423 222.813 901.717 223.095 900.809C223.142 900.656 223.079 900.468 223.005 900.248L222.987 900.195C222.721 899.261 215.387 895.661 206.587 892.195C202.497 890.559 198.437 888.923 195.108 887.581L195.086 887.572L195.07 887.566L195.033 887.551L195.005 887.539L194.93 887.509L194.897 887.496C191.275 886.037 188.552 884.94 187.654 884.595C185.921 883.795 184.321 883.261 184.054 883.261C183.787 883.261 172.587 878.861 159.121 873.394C113.654 854.861 50.7206 830.194 47.1206 829.394C45.2539 828.994 42.7206 828.328 41.6539 827.794C40.3206 827.394 39.1206 828.728 37.6539 832.461ZM30.0539 943.261C27.2539 929.661 24.9872 898.728 26.3206 894.994C27.2539 892.728 39.2539 892.861 83.1206 895.928C125.787 898.861 190.721 903.128 208.454 904.061C216.587 904.594 223.387 905.394 223.387 905.928C223.387 906.461 219.921 907.794 215.787 908.994C211.668 910.024 199.595 913.291 188.568 916.275L187.387 916.595C56.5872 952.461 34.1872 958.461 33.1206 957.394C33.0016 957.276 31.9277 952.17 30.5614 945.674L30.5413 945.578L30.0539 943.261ZM206.054 915.261C196.187 918.061 157.121 928.861 119.387 939.128C81.6539 949.528 47.2539 959.261 42.9872 960.861C35.6539 963.528 35.2539 963.928 36.0539 967.128C38.8539 978.461 57.1206 1016.33 60.3206 1017.53C61.2539 1017.93 63.6539 1016.99 65.6539 1015.66C67.6539 1014.19 70.3206 1012.73 71.3872 1012.33C72.5872 1011.93 100.187 994.061 132.721 972.595C151.92 959.978 171.212 947.361 185.371 938.101L185.392 938.087L185.397 938.084L185.431 938.061L185.433 938.06C195.333 931.585 202.715 926.757 205.787 924.728C220.321 915.528 227.654 909.928 225.387 910.061C224.721 910.061 215.921 912.461 206.054 915.261ZM156.054 961.794C171.521 951.661 193.654 937.128 205.387 929.394C224.854 916.594 230.054 913.794 230.054 916.061C230.054 916.861 222.321 927.128 220.721 928.594C219.787 929.394 172.987 987.661 154.987 1010.46C136.987 1033.26 118.054 1056.19 111.254 1063.39L105.254 1069.93L92.9872 1057.93C86.3206 1051.26 76.8539 1040.99 72.1872 1034.99L63.6539 1024.19L68.4539 1020.33C73.5206 1016.46 107.654 993.661 156.054 961.794ZM215.342 941.409L215.34 941.411L214.635 942.307C214.361 942.654 214.099 942.987 213.85 943.303L213.487 943.765L213.254 944.061C210.454 947.795 196.721 964.861 182.854 982.061C168.854 999.261 152.721 1019.26 146.854 1026.59C144.483 1029.49 142.154 1032.37 140.121 1034.88L140.104 1034.9C137.001 1038.73 134.592 1041.71 133.787 1042.59C128.321 1049.13 119.921 1059.79 118.721 1061.79C118.285 1062.58 117.281 1064.05 116.19 1065.64C115.612 1066.48 115.009 1067.36 114.454 1068.19C112.721 1070.46 111.387 1072.86 111.387 1073.53C111.521 1076.59 152.987 1100.33 162.454 1102.59C165.521 1103.39 166.187 1102.99 167.387 1099.79C168.187 1097.66 170.054 1093.53 171.387 1090.59C172.854 1087.66 182.854 1061.53 193.521 1032.59C199.196 1017.39 205.682 999.939 211.449 984.421C216.656 970.41 221.277 957.976 224.187 950.195C230.321 933.795 235.387 920.194 235.387 919.794C235.387 917.394 231.787 920.595 225.654 928.195C222.575 932.229 218.397 937.531 215.342 941.409ZM174.587 1095.79C175.254 1092.59 227.787 950.461 236.854 927.528C238.454 923.794 240.054 920.594 240.321 920.594C240.721 920.594 240.721 925.794 240.187 932.194C239.787 938.728 237.654 968.861 235.387 999.261C230.054 1073.13 228.587 1092.33 227.921 1097.93C227.824 1098.84 227.676 1100.14 227.507 1101.61L227.507 1101.62L227.506 1101.63C227.206 1104.24 226.843 1107.42 226.587 1110.06C225.787 1117.39 225.654 1117.39 221.521 1116.99C205.254 1115.26 174.854 1108.46 172.321 1105.93C171.654 1105.39 171.787 1103.66 172.587 1102.19C173.254 1100.86 174.321 1097.93 174.587 1095.79ZM244.721 922.861C244.721 924.061 243.521 940.994 242.054 960.461C240.721 979.928 238.587 1009.39 237.387 1025.93L237.146 1029.26C235.996 1045.11 234.668 1063.43 233.921 1071.39C233.254 1079.79 232.454 1093.79 232.187 1102.33L231.654 1117.93H242.587C255.387 1117.93 272.187 1116.06 285.787 1113.13L295.654 1110.99L294.721 1104.86C294.321 1101.39 284.721 1063.79 273.387 1021.26C264.563 988.145 256.224 956.565 252.146 941.12L252.133 941.072L252.132 941.068L252.121 941.025C250.974 936.684 250.168 933.63 249.787 932.194C246.987 921.528 244.721 917.394 244.721 922.861ZM253.135 929.959C251.808 924.803 250.83 921.003 250.587 920.194C249.254 915.794 251.121 918.061 258.187 928.861C260.42 932.403 263.854 937.724 267.359 943.155L267.366 943.167C269.927 947.135 272.526 951.162 274.721 954.594C280.054 962.594 292.054 981.261 301.387 995.928C305.516 1002.32 310.634 1010.27 315.801 1018.29L315.818 1018.32C322.492 1028.67 329.246 1039.16 334.054 1046.59C342.587 1059.79 350.454 1072.33 351.521 1074.59C352 1075.45 352.566 1076.47 353.131 1077.49L353.132 1077.5L353.134 1077.5C353.981 1079.04 354.828 1080.57 355.387 1081.53C356.454 1083.13 356.987 1084.73 356.721 1084.99C351.121 1089.66 313.787 1106.46 305.654 1107.93L301.387 1108.73L297.121 1094.99C293.387 1082.73 268.454 989.661 256.054 941.261C255.012 937.251 254.011 933.362 253.154 930.033L253.141 929.982L253.135 929.959ZM254.721 916.728C255.387 917.794 256.854 920.061 258.187 921.928C258.432 922.308 258.991 923.169 259.805 924.422L259.808 924.427L259.818 924.441L259.822 924.448C263.017 929.366 270.1 940.267 277.521 951.928C286.288 965.705 294.467 978.423 296.421 981.462L296.424 981.466L296.721 981.928C300.854 987.794 326.721 1027.93 342.454 1052.59C347.387 1060.33 353.121 1068.73 355.387 1071.26C357.654 1073.79 359.787 1076.99 360.187 1078.19C360.587 1079.53 361.387 1080.59 362.054 1080.59C364.587 1080.59 381.921 1066.33 394.454 1054.19L407.387 1041.39L400.321 1034.59C396.454 1030.99 375.921 1013.79 354.721 996.594C333.521 979.394 302.854 954.461 286.587 941.128C255.121 915.394 252.987 913.661 254.721 916.728ZM273.387 925.528C265.387 918.994 258.587 912.994 258.321 912.461C258.054 911.794 258.187 911.261 258.587 911.261C258.987 911.261 274.454 916.861 292.987 923.794C302.45 927.334 313.233 931.326 322.889 934.9L322.926 934.914L322.964 934.928L322.98 934.934C332.198 938.346 340.379 941.375 345.387 943.261C355.654 946.994 372.187 953.128 382.054 956.861C414.321 968.728 431.521 975.394 433.787 976.594C435.121 977.394 437.654 978.461 439.654 979.261L443.387 980.461L438.721 990.728C433.521 1002.19 427.254 1012.86 417.654 1026.99L417.264 1027.56C410.986 1036.6 410.931 1036.68 408.187 1034.19C406.587 1032.86 403.654 1030.59 401.387 1029.26C399.254 1027.93 390.854 1021.26 382.721 1014.59C369.787 1003.93 316.321 960.328 273.387 925.528ZM260.721 906.994C260.721 907.528 265.121 909.661 270.454 911.528C275.654 913.394 284.321 916.594 289.387 918.594C292.308 919.643 296.408 921.155 300.48 922.656L300.535 922.677L300.563 922.687L300.586 922.695C303.727 923.853 306.845 925.003 309.387 925.928L309.401 925.933L309.416 925.938C315.302 928.079 329.94 933.402 342.054 937.928C354.187 942.461 367.921 947.528 372.721 949.261C377.521 950.995 392.187 956.328 405.387 961.261C426.587 969.128 441.387 973.928 444.587 973.928C446.854 973.928 454.187 944.728 456.054 927.794L456.987 919.661L445.921 918.728C427.654 917.261 403.121 915.528 346.721 911.928C326.886 910.666 307.173 909.464 294.549 908.695C288.503 908.327 284.083 908.057 282.054 907.928C275.787 907.528 268.454 906.861 265.787 906.594C262.987 906.194 260.721 906.328 260.721 906.994ZM424.69 859.182L424.763 859.164C435.124 856.652 443.356 854.656 445.387 854.195C448.321 853.661 451.121 853.394 451.654 853.794C454.987 856.594 459.921 911.261 456.987 913.128C454.187 914.861 434.321 914.061 361.387 909.261C321.121 906.728 281.921 904.195 274.321 903.661C265.921 903.128 260.854 902.328 261.121 901.528C261.521 900.061 315.387 886.061 410.054 862.728C415.112 861.504 420.108 860.293 424.69 859.182ZM424.187 792.461C423.787 793.128 421.121 794.728 418.454 795.928C415.654 797.261 406.854 802.594 398.721 807.928C390.721 813.128 380.854 819.528 376.854 822.061C376.304 822.409 375.646 822.825 374.899 823.298C370.211 826.263 362.021 831.442 355.121 835.928L352.631 837.531L350.483 838.914L350.253 839.062L350.225 839.08C342.002 844.373 330.463 851.801 322.054 857.261C286.587 880.061 261.387 896.861 263.921 896.061C267.387 894.861 411.121 858.195 424.054 855.128C429.921 853.795 435.654 852.061 436.854 851.394C438.054 850.728 441.521 849.395 444.587 848.595C447.921 847.795 450.054 846.328 450.054 845.128C450.054 838.728 428.987 791.261 426.054 791.261C425.387 791.261 424.587 791.794 424.187 792.461ZM373.787 752.328C377.121 748.861 380.587 744.861 381.654 743.261C382.721 741.795 383.921 740.595 384.587 740.595C387.654 740.595 423.387 782.195 423.387 785.928C423.387 786.595 422.321 787.395 420.987 787.795C419.654 788.328 417.254 789.928 415.521 791.395C413.121 793.661 289.921 874.061 270.854 885.928L265.921 888.995L273.521 876.461C280.054 865.928 288.054 854.995 299.654 841.261C318.987 818.061 352.721 777.395 359.254 769.261C364.054 763.395 370.587 755.795 373.787 752.328ZM366.321 728.994C365.254 730.328 322.721 798.194 306.854 823.928C304.054 828.461 303.254 830.461 304.987 828.461C315.654 816.328 371.121 748.728 374.987 743.128L379.654 736.194L375.921 733.128C369.787 727.928 367.787 727.128 366.321 728.994ZM303.387 763.261C312.321 740.861 321.521 718.594 323.787 713.661C326.187 708.594 328.187 704.594 328.321 704.594C329.254 704.594 340.587 710.061 342.454 711.528C344.721 713.261 343.387 715.794 321.521 750.594C317.496 757.05 313.445 763.532 309.692 769.539C301.506 782.639 294.732 793.479 292.721 796.861C289.654 801.928 286.987 805.928 286.587 805.928C286.187 805.928 286.187 805.528 286.454 804.861C286.854 804.328 294.454 785.661 303.387 763.261ZM259.654 696.861C258.854 702.194 256.854 729.661 255.387 757.928C251.654 828.728 250.054 855.128 249.387 860.328C249.121 862.728 249.387 864.328 250.054 863.928C250.587 863.528 256.187 854.994 262.454 844.994C270.054 832.728 276.454 820.328 281.387 807.928C314.721 725.528 322.721 704.194 321.254 701.794C320.854 701.128 315.387 699.128 308.987 697.261C302.587 695.261 296.587 693.528 295.654 693.261C294.721 692.861 293.654 694.194 293.254 696.328C292.854 698.328 291.654 701.128 290.587 702.594C288.854 704.861 288.454 704.994 287.387 703.261C286.721 702.194 286.454 698.994 286.987 696.194C287.387 693.528 287.521 691.261 287.254 691.261C287.065 691.261 284.341 690.794 280.544 690.143C278.974 689.874 277.221 689.573 275.387 689.261C269.121 688.194 263.387 687.261 262.587 687.261C261.921 687.261 260.587 691.661 259.654 696.861ZM237.387 907.261C234.987 904.595 234.987 904.461 236.721 900.061C238.321 895.928 243.254 895.395 246.587 899.128C248.321 900.995 248.454 902.328 247.521 904.861C245.921 909.128 240.321 910.461 237.387 907.261ZM245.921 900.195C248.587 905.128 242.321 909.661 238.321 905.661C236.187 903.528 236.321 902.594 238.854 900.061C241.521 897.261 244.321 897.395 245.921 900.195ZM481.387 611.928C504.587 617.794 554.987 629.928 581.387 636.061C676.187 657.794 691.521 660.994 693.121 659.394C693.921 658.594 693.387 657.794 691.254 657.394C690.903 657.313 689.933 657.085 688.456 656.736L688.438 656.732L688.423 656.728C682.586 655.351 668.911 652.124 654.054 648.728C586.987 632.994 474.587 608.461 471.121 608.728C470.187 608.728 474.854 610.194 481.387 611.928ZM491.787 626.595C489.387 626.061 487.387 625.128 487.387 624.461C487.387 623.794 488.721 623.528 490.454 623.928C512.187 628.861 604.454 649.661 652.721 660.461C676.587 665.794 685.387 668.328 680.587 668.461C679.387 668.594 661.121 664.594 639.921 659.794C621.597 655.664 607.372 652.446 596.209 649.92L596.156 649.908L596.055 649.886C573.455 644.773 563.452 642.51 557.387 641.261C548.321 639.395 522.587 633.661 506.721 629.928C503.684 629.238 500.398 628.512 497.619 627.898L497.61 627.896C495.024 627.325 492.879 626.852 491.787 626.595ZM437.521 613.794C438.987 615.261 478.187 623.528 479.121 622.594C480.054 621.661 477.787 620.994 458.187 616.594C439.387 612.328 435.387 611.794 437.521 613.794ZM300.987 545.528C300.454 535.528 302.187 522.728 304.854 517.528C307.121 513.528 307.254 514.994 305.254 521.528C302.854 529.394 302.721 544.594 304.854 553.261C308.721 568.861 321.254 586.194 335.387 595.261C343.921 600.728 343.921 601.794 335.521 597.261C324.987 591.528 311.921 577.394 306.321 565.928C302.454 557.794 301.521 554.061 300.987 545.528ZM404.987 604.194C399.121 615.128 390.721 631.128 386.454 639.928L386.33 640.184C377.386 658.73 377.262 658.986 379.121 657.261C382.454 653.928 417.921 584.594 416.187 584.594C415.921 584.594 410.854 593.394 404.987 604.194ZM432.386 696.646L430.854 694.195C430.321 693.395 430.187 692.595 430.587 692.595C431.654 692.595 482.054 768.861 514.187 819.261C517.864 825.029 522.087 831.616 525.781 837.377C528.918 842.269 531.673 846.567 533.387 849.261C545.521 868.061 562.587 895.394 573.921 913.928L573.932 913.946C580.062 923.807 586.188 933.662 587.654 935.661C589.121 937.795 590.054 939.661 589.787 939.928C589.121 940.594 531.921 854.461 504.054 810.595C501.787 806.861 497.787 800.595 495.121 796.595C494.287 795.278 492.932 793.122 491.257 790.457C487.845 785.027 483.103 777.481 478.721 770.595C472.321 760.328 465.521 749.528 463.654 746.595C460.903 742.288 438.837 706.971 432.399 696.668L432.386 696.646Z" fill="white"/>
</svg>
